# xmcd
# Track frame offsets:
# 150
# 15675
# 33230
# 44330
# 58252
# 74742
# 91627
# 102620
# 116152
# 132780
# 144575
# 160662
# 176730
# 187875
# 209577
#
# Disc length: 2997 seconds
# Revision: 0
# Processed by: cddbd v1.4PL0 Copyright (c) Steve Scherf et al.
# Submitted via: VisiTrax 2.9.5.181 - For more info visit www.synapsa.com
#
DISCID=da0bb30f
DTITLE=Various Artist - Line Dance 03 "Favourites" Vol. 03
DYEAR=1997
DGENRE=Country
TTITLE0=Freddy weller - Rock 'n' Roll Time Capsule
TTITLE1=Bill Todd - I Wanna Watch You dance All Night
TTITLE2=Leroy Lovvit - When You Go dancin'
TTITLE3=Luce Amen - He Ain't Mr. Right
TTITLE4=Swamp Honkys - Outta My Head
TTITLE5=Becky Hobbs - Joanna
TTITLE6=Gary Floyd - Outta My Head
TTITLE7=John P. Sweisshelm - Toe Tappin' Country Man
TTITLE8=Swamp Honkeys - Why DÝa Pick On Me ?
TTITLE9=Ray Griff - You Ring My Bell
TTITLE10=Debbie Andrews and Mike Blaxhill - Ready To be Wrong
TTITLE11=Luce Amen - You Should Have Thought About Her
TTITLE12=Becky Hobbs - Don't Call Me
TTITLE13=Hard Had Dave - Double Boogie Blues
TTITLE14=Swamp Honkeys - I Must Be Stupid
EXTD=
EXTT0=
EXTT1=
EXTT2=
EXTT3=
EXTT4=
EXTT5=
EXTT6=
EXTT7=
EXTT8=
EXTT9=
EXTT10=
EXTT11=
EXTT12=
EXTT13=
EXTT14=
PLAYORDER=
